<?xml version="1.0" encoding="utf-8"?>
<!-- Generator: Adobe Illustrator 23.1.0, SVG Export Plug-In . SVG Version: 6.00 Build 0)  -->
<svg version="1.1" id="Слой_1" xmlns="http://www.w3.org/2000/svg" xmlns:xlink="http://www.w3.org/1999/xlink" x="0px" y="0px"
	 viewBox="0 0 365.7 365.7" style="enable-background:new 0 0 365.7 365.7;" xml:space="preserve">
<path d="M235.3,182.9l98.3-98.3c10.9-10.9,10.9-28.5,0-39.3l-13.1-13.1c-10.9-10.9-28.5-10.9-39.3,0l-98.3,98.3L84.6,32.1
	c-10.9-10.9-28.5-10.9-39.3,0L32.1,45.2c-10.9,10.9-10.9,28.5,0,39.3l98.3,98.3l-98.3,98.3c-10.9,10.9-10.9,28.5,0,39.3l13.1,13.1
	c10.9,10.9,28.5,10.9,39.3,0l98.3-98.3l98.3,98.3c10.9,10.9,28.5,10.9,39.3,0l13.1-13.1c10.9-10.9,10.9-28.5,0-39.3L235.3,182.9z"/>
</svg>
