<svg width="34" height="34" viewBox="0 0 34 34" fill="none" xmlns="http://www.w3.org/2000/svg">
<path d="M20.2539 17C20.2539 18.7996 18.7996 20.2539 17 20.2539C15.2004 20.2539 13.7461 18.7996 13.7461 17C13.7461 15.2004 15.2004 13.7461 17 13.7461C18.7996 13.7461 20.2539 15.2004 20.2539 17Z" fill="#0A0A0A"/>
<path d="M24.61 11.2426C24.4506 10.8176 24.2049 10.4324 23.8795 10.1203C23.5674 9.79491 23.1822 9.54921 22.7572 9.38983C22.4119 9.25702 21.8939 9.09764 20.9443 9.05116C19.915 9.00468 19.6029 8.99139 16.9998 8.99139C14.39 8.99139 14.0846 8.99804 13.0553 9.05116C12.1057 9.09764 11.5877 9.25702 11.2424 9.38983C10.8174 9.54921 10.4322 9.79491 10.1201 10.1203C9.79473 10.4324 9.54902 10.8176 9.38965 11.2426C9.25684 11.5879 9.09746 12.1058 9.05098 13.0555C9.00449 14.0848 8.99121 14.3902 8.99121 17C8.99121 19.6098 9.00449 19.9152 9.05098 20.9445C9.09746 21.8941 9.2502 22.4121 9.38965 22.7574C9.54902 23.1824 9.79473 23.5676 10.1201 23.8797C10.4322 24.2051 10.8174 24.4508 11.2424 24.6101C11.5877 24.743 12.1057 24.9023 13.0553 24.9488C14.0846 24.9953 14.39 25.0086 16.9998 25.0086C19.6096 25.0086 19.915 25.0019 20.9443 24.9488C21.8939 24.9023 22.4119 24.7496 22.7572 24.6101C23.6072 24.2848 24.2846 23.6074 24.61 22.7574C24.7428 22.4121 24.9022 21.8941 24.9486 20.9445C24.9951 19.9152 25.0084 19.6031 25.0084 17C25.0084 14.3902 25.0018 14.0848 24.9486 13.0555C24.9022 12.1058 24.7428 11.5879 24.61 11.2426ZM16.9998 22.0137C14.2307 22.0137 11.9861 19.7691 11.9861 17C11.9861 14.2308 14.2307 11.9863 16.9998 11.9863C19.7689 11.9863 22.0135 14.2308 22.0135 17C22.0135 19.7691 19.7689 22.0137 16.9998 22.0137ZM22.2127 12.9625C21.5686 12.9625 21.0439 12.4379 21.0439 11.7937C21.0439 11.1496 21.5686 10.625 22.2127 10.625C22.8568 10.625 23.3815 11.1496 23.3815 11.7937C23.3815 12.4379 22.8568 12.9625 22.2127 12.9625Z" fill="#0A0A0A"/>
<path d="M17 0C7.61016 0 0 7.61016 0 17C0 26.3898 7.61016 34 17 34C26.3898 34 34 26.3898 34 17C34 7.61016 26.3898 0 17 0ZM26.702 21.0242C26.6555 22.0602 26.4895 22.7707 26.2504 23.3949C25.7457 24.7031 24.7098 25.7457 23.3949 26.2504C22.7773 26.4895 22.0668 26.6555 21.0242 26.702C19.9816 26.7484 19.6496 26.7617 17 26.7617C14.3504 26.7617 14.0184 26.7484 12.9758 26.702C11.9398 26.6555 11.2293 26.4895 10.6051 26.2504C9.9543 26.0047 9.36328 25.6195 8.87852 25.1215C8.38047 24.6367 7.99531 24.0457 7.74961 23.3949C7.51055 22.7773 7.34453 22.0668 7.29805 21.0242C7.25156 19.9816 7.23828 19.6496 7.23828 17C7.23828 14.3504 7.25156 14.0184 7.29805 12.9758C7.34453 11.9398 7.51055 11.2293 7.74961 10.6051C7.99531 9.9543 8.38047 9.36328 8.87852 8.87852C9.36328 8.38047 9.9543 7.99531 10.6051 7.74961C11.2293 7.51055 11.9332 7.34453 12.9758 7.29805C14.0184 7.25156 14.3504 7.23828 17 7.23828C19.6496 7.23828 19.9816 7.25156 21.0242 7.29805C22.0602 7.34453 22.7707 7.51055 23.3949 7.74961C24.0457 7.99531 24.6367 8.38047 25.1215 8.87852C25.6195 9.36328 26.0047 9.9543 26.2504 10.6051C26.4895 11.2293 26.6555 11.9332 26.702 12.9758C26.7484 14.0184 26.7617 14.3504 26.7617 17C26.7617 19.6496 26.7484 19.9816 26.702 21.0242Z" fill="#0A0A0A"/>
</svg>
