<svg width="33" height="33" viewBox="0 0 33 33" fill="none" xmlns="http://www.w3.org/2000/svg">
<path d="M16.5 0C7.38957 0 0 7.38957 0 16.5C0 25.6104 7.38957 33 16.5 33C25.6104 33 33 25.6104 33 16.5C33 7.38957 25.6104 0 16.5 0ZM24.8681 18.2883C25.6442 19.0307 26.454 19.7393 27.1288 20.5828C27.4325 20.954 27.7362 21.3252 27.9387 21.7638C28.2423 22.3712 27.9724 23.046 27.4325 23.0798H24.0583C23.181 23.1472 22.5061 22.8098 21.8988 22.2025C21.4264 21.7301 20.9877 21.2239 20.5491 20.7178C20.3804 20.5153 20.1779 20.3129 19.9417 20.1779C19.4693 19.8742 19.0644 19.9755 18.8282 20.4479C18.5583 20.954 18.4908 21.4939 18.4571 22.0337C18.4233 22.8436 18.1871 23.046 17.3773 23.0798C15.6564 23.1472 14.0368 22.911 12.5521 22.0337C11.2362 21.2577 10.1902 20.2117 9.31288 18.9969C7.55828 16.635 6.24233 14.0368 5.02761 11.3712C4.75767 10.7638 4.96012 10.4601 5.63497 10.4264C6.74847 10.3926 7.82822 10.3926 8.94172 10.4264C9.38037 10.4264 9.68405 10.6963 9.85276 11.1012C10.4601 12.5521 11.1687 13.9693 12.0798 15.2515C12.316 15.589 12.5859 15.9264 12.9233 16.1963C13.3282 16.4663 13.5982 16.365 13.8006 15.9264C13.9018 15.6564 13.9693 15.3528 14.0031 15.0491C14.1043 14.0368 14.1043 13.0245 13.9356 12.0123C13.8344 11.3374 13.4969 10.9325 12.8558 10.7975C12.5184 10.7301 12.5859 10.6288 12.7209 10.4264C12.9908 10.1227 13.2607 9.92025 13.7669 9.92025H17.5798C18.1871 10.0552 18.3221 10.2914 18.3896 10.8988V15.1503C18.3896 15.3865 18.4908 16.0951 18.9294 16.2301C19.2669 16.3313 19.5031 16.0613 19.7055 15.8589C20.6166 14.8804 21.2577 13.7331 21.865 12.5521C22.135 12.0123 22.3374 11.4724 22.5736 10.9325C22.7423 10.5276 22.9785 10.3252 23.4509 10.3252H27.1288C27.2301 10.3252 27.3313 10.3252 27.4663 10.3589C28.0736 10.4601 28.2423 10.7301 28.0736 11.3374C27.7699 12.2822 27.1963 13.092 26.6227 13.8681C26.0153 14.7117 25.3405 15.5215 24.7331 16.3988C24.1258 17.2086 24.1595 17.6135 24.8681 18.2883Z" fill="black"/>
</svg>
